<?xml version="1.0" encoding="UTF-8" standalone="no"?>
<svg
   xmlns:dc="http://purl.org/dc/elements/1.1/"
   xmlns:cc="http://creativecommons.org/ns#"
   xmlns:rdf="http://www.w3.org/1999/02/22-rdf-syntax-ns#"
   xmlns:svg="http://www.w3.org/2000/svg"
   xmlns="http://www.w3.org/2000/svg"
   xmlns:sodipodi="http://sodipodi.sourceforge.net/DTD/sodipodi-0.dtd"
   xmlns:inkscape="http://www.inkscape.org/namespaces/inkscape"
   sodipodi:docname="3.svg"
   inkscape:version="1.0 (4035a4fb49, 2020-05-01)"
   id="svg146"
   version="1.1"
   viewBox="0 0 185.20833 158.75"
   height="600"
   width="700">
  <defs
     id="defs140" />
  <sodipodi:namedview
     inkscape:window-maximized="1"
     inkscape:window-y="-4"
     inkscape:window-x="-4"
     inkscape:window-height="753"
     inkscape:window-width="1280"
     units="px"
     showgrid="false"
     inkscape:document-rotation="0"
     inkscape:current-layer="layer1"
     inkscape:document-units="mm"
     inkscape:cy="316.09756"
     inkscape:cx="400"
     inkscape:zoom="0.82"
     inkscape:pageshadow="2"
     inkscape:pageopacity="0.0"
     borderopacity="1.0"
     bordercolor="#666666"
     pagecolor="#ffffff"
     id="base" />
  <metadata
     id="metadata143">
    <rdf:RDF>
      <cc:Work
         rdf:about="">
        <dc:format>image/svg+xml</dc:format>
        <dc:type
           rdf:resource="http://purl.org/dc/dcmitype/StillImage" />
        <dc:title></dc:title>
      </cc:Work>
    </rdf:RDF>
  </metadata>
  <g
     id="layer1"
     inkscape:groupmode="layer"
     inkscape:label="Layer 1">
    <rect
       ry="6.7759147"
       rx="0"
       y="7.1381063"
       x="7.4212399"
       height="147.41728"
       width="167.13924"
       id="rect148"
       style="fill:#ffffff;stroke:#000000;stroke-width:0.52916667;stroke-miterlimit:4;stroke-dasharray:none" />
    <path
       id="path150"
       d="M 16.13313,26.13567 H 163.58994"
       style="fill:none;stroke:#000000;stroke-width:0.264583px;stroke-linecap:butt;stroke-linejoin:miter;stroke-opacity:1" />
    <path
       id="path152"
       d="M 47.108739,15.165142 V 132.61433"
       style="fill:none;stroke:#000000;stroke-width:0.264583px;stroke-linecap:butt;stroke-linejoin:miter;stroke-opacity:1" />
    <text
       id="text156"
       y="22.031404"
       x="52.671436"
       style="font-size:4.7625px;line-height:1.25;font-family:monospace;-inkscape-font-specification:monospace;letter-spacing:0.0264583px;stroke-width:0.264583"
       xml:space="preserve"><tspan
         style="font-size:4.7625px;stroke-width:0.264583"
         y="22.031404"
         x="52.671436"
         id="tspan154"
         sodipodi:role="line">week 1</tspan></text>
    <path
       style="fill:none;stroke:#000000;stroke-width:0.264583px;stroke-linecap:butt;stroke-linejoin:miter;stroke-opacity:1"
       d="M 76.742091,15.165142 V 132.61433"
       id="path158" />
    <path
       id="path160"
       d="M 106.90465,15.165142 V 132.61433"
       style="fill:none;stroke:#000000;stroke-width:0.264583px;stroke-linecap:butt;stroke-linejoin:miter;stroke-opacity:1" />
    <path
       style="fill:none;stroke:#000000;stroke-width:0.264583px;stroke-linecap:butt;stroke-linejoin:miter;stroke-opacity:1"
       d="M 133.89232,15.165142 V 132.61433"
       id="path162" />
    <text
       xml:space="preserve"
       style="font-size:4.7625px;line-height:1.25;font-family:monospace;-inkscape-font-specification:monospace;letter-spacing:0.0264583px;stroke-width:0.264583"
       x="83.363129"
       y="22.031404"
       id="text166"><tspan
         sodipodi:role="line"
         id="tspan164"
         x="83.363129"
         y="22.031404"
         style="font-size:4.7625px;stroke-width:0.264583">week 2</tspan></text>
    <text
       id="text170"
       y="22.031404"
       x="111.93812"
       style="font-size:4.7625px;line-height:1.25;font-family:monospace;-inkscape-font-specification:monospace;letter-spacing:0.0264583px;stroke-width:0.264583"
       xml:space="preserve"><tspan
         style="font-size:4.7625px;stroke-width:0.264583"
         y="22.031404"
         x="111.93812"
         id="tspan168"
         sodipodi:role="line">week 3</tspan></text>
    <text
       xml:space="preserve"
       style="font-size:4.7625px;line-height:1.25;font-family:monospace;-inkscape-font-specification:monospace;letter-spacing:0.0264583px;stroke-width:0.264583"
       x="140.51294"
       y="22.031404"
       id="text174"><tspan
         sodipodi:role="line"
         id="tspan172"
         x="140.51294"
         y="22.031404"
         style="font-size:4.7625px;stroke-width:0.264583">week 4</tspan></text>
    <path
       id="path1001"
       d="M 56.41433,40.023072 67.603689,33.562894"
       style="fill:none;stroke:#000000;stroke-width:0.264583px;stroke-linecap:butt;stroke-linejoin:miter;stroke-opacity:1" />
    <path
       style="fill:none;stroke:#000000;stroke-width:0.264583px;stroke-linecap:butt;stroke-linejoin:miter;stroke-opacity:1"
       d="M 56.943497,57.485583 68.132856,51.025405"
       id="path1003" />
    <path
       id="path1005"
       d="M 56.943497,96.114774 68.132856,89.654596"
       style="fill:none;stroke:#000000;stroke-width:0.264583px;stroke-linecap:butt;stroke-linejoin:miter;stroke-opacity:1" />
    <path
       style="fill:none;stroke:#000000;stroke-width:0.264583px;stroke-linecap:butt;stroke-linejoin:miter;stroke-opacity:1"
       d="m 56.943497,113.57736 11.189359,-6.46021"
       id="path1007" />
    <path
       id="path1009"
       d="m 86.047682,113.57736 11.189359,-6.46021"
       style="fill:none;stroke:#000000;stroke-width:0.264583px;stroke-linecap:butt;stroke-linejoin:miter;stroke-opacity:1" />
    <path
       style="fill:none;stroke:#000000;stroke-width:0.264583px;stroke-linecap:butt;stroke-linejoin:miter;stroke-opacity:1"
       d="M 86.047682,77.593929 97.237041,71.133755"
       id="path1011" />
    <path
       id="path1013"
       d="M 86.047682,58.01475 97.237041,51.554576"
       style="fill:none;stroke:#000000;stroke-width:0.264583px;stroke-linecap:butt;stroke-linejoin:miter;stroke-opacity:1" />
    <path
       style="fill:none;stroke:#000000;stroke-width:0.264583px;stroke-linecap:butt;stroke-linejoin:miter;stroke-opacity:1"
       d="m 117.26863,58.01475 11.18942,-6.460174"
       id="path1015" />
    <path
       id="path1017"
       d="M 146.37298,58.01475 157.5624,51.554576"
       style="fill:none;stroke:#000000;stroke-width:0.264583px;stroke-linecap:butt;stroke-linejoin:miter;stroke-opacity:1" />
    <path
       style="fill:none;stroke:#000000;stroke-width:0.264583px;stroke-linecap:butt;stroke-linejoin:miter;stroke-opacity:1"
       d="M 146.37298,77.593929 157.5624,71.133755"
       id="path1019" />
    <path
       id="path1021"
       d="M 146.37298,40.023072 157.5624,33.562898"
       style="fill:none;stroke:#000000;stroke-width:0.264583px;stroke-linecap:butt;stroke-linejoin:miter;stroke-opacity:1" />
    <path
       style="fill:none;stroke:#000000;stroke-width:0.264583px;stroke-linecap:butt;stroke-linejoin:miter;stroke-opacity:1"
       d="M 146.37298,99.289776 157.5624,92.829602"
       id="path1023" />
    <path
       id="path1025"
       d="m 116.73946,114.10653 11.18942,-6.46021"
       style="fill:none;stroke:#000000;stroke-width:0.264583px;stroke-linecap:butt;stroke-linejoin:miter;stroke-opacity:1" />
    <path
       style="fill:none;stroke:#000000;stroke-width:0.264583px;stroke-linecap:butt;stroke-linejoin:miter;stroke-opacity:1"
       d="m 116.73946,114.10653 11.18942,-6.46021"
       id="path1027" />
    <path
       d="m 17.751342,18.328174 c 0.88566,-0.38135 1.73303,-0.841305 2.595291,-1.271032 0.146111,-0.03822 0.287376,-0.11006 0.438333,-0.114663 1.109932,-0.03384 2.188471,1.709676 2.742853,2.47583 0.912355,1.434649 1.735346,2.929507 2.787977,4.268762 1.00161,1.169035 2.002711,1.097912 3.461465,1.106956 1.504598,-0.04285 3.030141,-0.106237 4.506201,-0.430432 0.641413,-0.140877 1.088636,-0.312124 1.699493,-0.521918 2.010372,-0.597886 3.840382,-1.755115 5.464354,-3.067855 0.543449,-0.485298 0.283644,-0.230173 0.779323,-0.765473 0,0 -2.035705,0.848524 -2.035705,0.848524 v 0 c -0.505803,0.511735 -0.243104,0.266491 -0.788064,0.735765 -0.586782,0.451388 -0.325609,0.264136 -0.958315,0.693353 -0.19232,0.130465 -0.79162,0.48129 -0.577916,0.389977 2.893914,-1.236532 0.376192,-0.404749 -0.166312,-0.173672 -0.545796,0.199269 -1.133076,0.429353 -1.697498,0.565348 -1.461399,0.352117 -2.981574,0.411413 -4.476491,0.456873 -1.308907,-0.0042 -2.400839,0.07993 -3.324838,-0.964857 -1.078069,-1.315802 -1.905879,-2.806801 -2.811176,-4.241869 -0.606545,-0.844886 -1.678593,-2.594649 -2.84148,-2.712006 -0.158683,-0.01601 -0.315379,0.04778 -0.473068,0.07168 -0.865485,0.408051 -1.686295,0.907616 -2.580423,1.255673 0,0 -1.744004,1.395039 -1.744004,1.395039 z"
       id="path1029"
       style="fill:#ff6600;stroke:#ff6600;stroke-width:0.529167;stroke-miterlimit:4;stroke-dasharray:none" />
    <path
       d="m 36.106639,14.884417 c -1.172546,0.32079 -2.311725,0.746783 -3.443927,1.186944 -1.183376,0.47722 -2.241437,1.196434 -3.336478,1.846191 -0.1596,0.0947 -0.635045,0.384203 -0.473649,0.292603 2.297525,-1.303945 1.696823,-0.977094 0.9696,-0.591189 -0.769615,0.445214 -1.539098,0.890655 -2.308842,1.335642 -0.504129,0.291435 1.982975,-1.217396 1.511985,-0.874982 -0.71383,0.518962 -1.506982,0.919714 -2.243116,1.406522 -0.125979,0.08331 -0.219676,0.208001 -0.338768,0.300886 -0.118262,0.09224 -0.502902,0.326248 -0.371834,0.253344 0.511604,-0.28457 1.009759,-0.592672 1.514639,-0.889008 -0.820822,0.403898 -1.742289,0.448642 -2.615402,0.683883 -1.57008,0.513157 -2.971432,1.45378 -4.384962,2.27648 3.67511,-2.144356 -0.403006,0.214352 -1.499227,1.019054 0,0 2.06001,-0.815677 2.06001,-0.815677 v 0 c 0.239857,-0.172653 0.98693,-0.646284 0.72327,-0.512779 -0.78503,0.397506 -4.295589,2.444487 0.779774,-0.487537 -3.296845,1.879093 -0.284773,0.102088 0.567093,-0.131895 0.299754,-0.08387 0.593216,-0.195015 0.899358,-0.251264 0.586944,-0.107843 1.198701,-0.105208 1.747018,-0.386454 0.75595,-0.439533 1.519691,-0.86593 2.26785,-1.318597 0.258035,-0.156121 0.980181,-0.68933 0.703856,-0.568496 -0.529956,0.231745 -2.011598,1.1384 -1.53148,0.815839 0.221342,-0.148707 4.678299,-2.684965 0.7976,-0.473146 1.213231,-0.624014 0.595452,-0.296961 2.806903,-1.586957 0.160171,-0.09343 0.636241,-0.380603 0.472435,-0.293702 -0.476017,0.252534 -0.939477,0.528064 -1.40983,0.791002 -0.31211,0.174478 1.301711,-0.753418 0.960112,-0.478433 1.115042,-0.451964 2.244376,-0.879269 3.408162,-1.187115 0,0 1.76785,-1.361159 1.76785,-1.361159 z"
       id="path1031"
       style="fill:#ff6600;stroke:#ff6600;stroke-width:0.529167;stroke-miterlimit:4;stroke-dasharray:none" />
    <rect
       ry="1.3592416"
       rx="12.432665"
       y="143.31798"
       x="114.76343"
       height="7.2492886"
       width="22.742682"
       id="rect1033"
       style="fill:#ffffff;stroke:#000000;stroke-width:0.303943;stroke-miterlimit:4;stroke-dasharray:none" />
    <rect
       style="fill:#aaffee;stroke:#000000;stroke-width:0.30432;stroke-miterlimit:4;stroke-dasharray:none"
       id="rect1035"
       width="22.8011"
       height="7.2486801"
       x="142.77985"
       y="143.38782"
       rx="12.464601"
       ry="1.3591275" />
    <text
       id="text1039"
       y="147.98596"
       x="149.50896"
       style="font-size:4.23333px;line-height:1.25;font-family:monospace;-inkscape-font-specification:monospace;letter-spacing:0.0264583px;stroke-width:0.264583"
       xml:space="preserve"><tspan
         style="font-style:normal;font-variant:normal;font-weight:bold;font-stretch:normal;font-family:monospace;-inkscape-font-specification:'monospace Bold';stroke-width:0.264583"
         y="147.98596"
         x="149.50896"
         id="tspan1037"
         sodipodi:role="line">save</tspan></text>
    <text
       xml:space="preserve"
       style="font-size:4.23333px;line-height:1.25;font-family:monospace;-inkscape-font-specification:monospace;letter-spacing:0.0264583px;stroke-width:0.264583"
       x="118.8176"
       y="147.98596"
       id="text1043"><tspan
         sodipodi:role="line"
         id="tspan1041"
         x="118.8176"
         y="147.98596"
         style="font-style:normal;font-variant:normal;font-weight:bold;font-stretch:normal;font-family:monospace;-inkscape-font-specification:'monospace Bold';stroke-width:0.264583">cancel</tspan></text>
    <text
       id="text1047"
       y="38.074184"
       x="20.327744"
       style="font-size:4.23333px;line-height:1.25;font-family:monospace;-inkscape-font-specification:monospace;letter-spacing:0.0264583px;stroke-width:0.264583"
       xml:space="preserve"><tspan
         style="stroke-width:0.264583"
         y="38.074184"
         x="20.327744"
         id="tspan1045"
         sodipodi:role="line" /></text>
  </g>
</svg>
